# xmcd
#
# Track frame offsets: 
#        150
#        22101
#        47097
#        68182
#        82857
#        105551
#        124583
#        135441
#        156673
#        171610
#
# Disc length: 2655 seconds
#
# Revision: 2
# Processed by: cddbd v1.5.1PL0 Copyright (c) Steve Scherf et al.
# Submitted via: ExactAudioCopy v0.95a4
#
DISCID=860a5d0a
DTITLE=Chris Rea - Dancing Down The Stony Road - Disc 1
DYEAR=2002
DGENRE=Blues
TTITLE0=Easy Rider
TTITLE1=Stony Road
TTITLE2=Dancing The Blues Away
TTITLE3=Catfish Girl
TTITLE4=Burning Feet
TTITLE5=Slow Dance
TTITLE6=Segway
TTITLE7=Mississippi
TTITLE8=So Lonely
TTITLE9=Heading For The City
EXTD=
EXTT0=
EXTT1=
EXTT2=
EXTT3=
EXTT4=
EXTT5=
EXTT6=
EXTT7=
EXTT8=
EXTT9=
PLAYORDER=
